<?xml version="1.0" standalone="no"?><!DOCTYPE svg PUBLIC "-//W3C//DTD SVG 1.1//EN" "http://www.w3.org/Graphics/SVG/1.1/DTD/svg11.dtd"><svg t="1752649074603" class="icon" viewBox="0 0 1024 1024" version="1.1" xmlns="http://www.w3.org/2000/svg" p-id="28520" xmlns:xlink="http://www.w3.org/1999/xlink" width="200" height="200"><path d="M512 512m-512 0a512 512 0 1 0 1024 0 512 512 0 1 0-1024 0Z" fill="#F7F7F8" p-id="28521"></path><path d="M469.333333 170.666667m42.666667 0l0 0q42.666667 0 42.666667 42.666666l0 42.666667q0 42.666667-42.666667 42.666667l0 0q-42.666667 0-42.666667-42.666667l0-42.666667q0-42.666667 42.666667-42.666666Z" fill="#333333" p-id="28522"></path><path d="M469.333333 725.333333m42.666667 0l0 0q42.666667 0 42.666667 42.666667l0 42.666667q0 42.666667-42.666667 42.666666l0 0q-42.666667 0-42.666667-42.666666l0-42.666667q0-42.666667 42.666667-42.666667Z" fill="#333333" p-id="28523"></path><path d="M853.333333 469.333333m0 42.666667l0 0q0 42.666667-42.666666 42.666667l-42.666667 0q-42.666667 0-42.666667-42.666667l0 0q0-42.666667 42.666667-42.666667l42.666667 0q42.666667 0 42.666666 42.666667Z" fill="#333333" p-id="28524"></path><path d="M298.666667 469.333333m0 42.666667l0 0q0 42.666667-42.666667 42.666667l-42.666667 0q-42.666667 0-42.666666-42.666667l0 0q0-42.666667 42.666666-42.666667l42.666667 0q42.666667 0 42.666667 42.666667Z" fill="#333333" p-id="28525"></path><path d="M723.189296 240.455928m30.169889 30.169889l0 0q30.169889 30.169889 0 60.339779l-30.169889 30.169889q-30.169889 30.169889-60.339779 0l0 0q-30.169889-30.169889 0-60.339778l30.169889-30.16989q30.169889-30.169889 60.339779 0Z" fill="#333333" p-id="28526"></path><path d="M330.980734 632.664489m30.16989 30.169889l0 0q30.169889 30.169889 0 60.339779l-30.16989 30.169889q-30.169889 30.169889-60.339778 0l0 0q-30.169889-30.169889 0-60.339778l30.169889-30.16989q30.169889-30.169889 60.339779 0Z" fill="#333333" p-id="28527"></path><path d="M783.554847 723.163622m-30.16989 30.16989l0 0q-30.169889 30.169889-60.339778 0l-30.16989-30.16989q-30.169889-30.169889 0-60.339778l0 0q30.169889-30.169889 60.339779 0l30.169889 30.169889q30.169889 30.169889 0 60.339779Z" fill="#333333" p-id="28528"></path><path d="M391.346286 330.955061m-30.16989 30.169889l0 0q-30.169889 30.169889-60.339778 0l-30.16989-30.169889q-30.169889-30.169889 0-60.339779l0 0q30.169889-30.169889 60.339779 0l30.169889 30.16989q30.169889 30.169889 0 60.339778Z" fill="#333333" p-id="28529"></path><path d="M512 682.666667a170.666667 170.666667 0 1 0 0-341.333334 170.666667 170.666667 0 0 0 0 341.333334z" fill="#333333" p-id="28530"></path></svg>