<?xml version="1.0" standalone="no"?><!DOCTYPE svg PUBLIC "-//W3C//DTD SVG 1.1//EN" "http://www.w3.org/Graphics/SVG/1.1/DTD/svg11.dtd"><svg t="1752647839038" class="icon" viewBox="0 0 1024 1024" version="1.1" xmlns="http://www.w3.org/2000/svg" p-id="10114" xmlns:xlink="http://www.w3.org/1999/xlink" width="200" height="200"><path d="M519.507331 827.307918c-40.539589 0-81.079179-7.507331-118.615835-24.023461-12.01173-4.504399-16.516129-18.017595-12.011731-30.029325 4.504399-12.01173 18.017595-16.516129 30.029326-12.01173 63.061584 27.026393 136.633431 27.026393 199.695015 0 31.530792-13.513196 58.557185-31.530792 82.580645-55.554252 22.521994-22.521994 42.041056-49.548387 54.052786-79.577713 12.01173-28.527859 19.519062-60.058651 21.020528-91.589443 1.501466-36.035191-4.504399-70.568915-18.017596-103.601173-4.504399-12.01173 1.501466-24.02346 12.01173-28.527859 12.01173-4.504399 24.02346 1.501466 28.52786 12.01173 15.014663 39.038123 22.521994 79.577713 21.020528 121.618768-1.501466 37.536657-9.008798 73.571848-24.023461 106.604106-15.014663 34.533724-36.035191 67.565982-64.56305 94.592375-28.527859 28.527859-60.058651 49.548387-97.595308 64.56305-34.533724 18.017595-73.571848 25.524927-114.111437 25.524927z" fill="#333333" p-id="10115"></path><path d="M261.255132 656.140762c-9.008798 0-16.516129-4.504399-21.020528-13.513196-13.513196-31.530792-21.020528-66.064516-22.521994-100.59824-4.504399-85.583578 27.026393-168.164223 88.58651-228.222874C363.354839 256.750733 438.428152 225.219941 519.507331 225.219941c39.038123 0 76.57478 7.507331 112.609971 22.521994 12.01173 4.504399 16.516129 18.017595 12.01173 30.029326-4.504399 12.01173-18.017595 16.516129-30.029325 12.01173-30.029326-12.01173-63.061584-18.017595-96.093842-18.017595-69.067449 0-132.129032 27.026393-181.677419 75.073314-51.049853 51.049853-78.076246 121.618768-75.073314 193.689149 1.501466 30.029326 7.507331 58.557185 19.519062 85.583578 4.504399 12.01173 0 24.02346-12.011731 30.029325h-7.507331z" fill="#FFDA00" p-id="10116"></path><path d="M570.557185 358.85044c-6.005865 0-12.01173-1.501466-15.014663-6.005865-9.008798-9.008798-9.008798-22.521994 0-31.530792l52.55132-54.052786-54.052786-57.055718c-9.008798-9.008798-7.507331-24.02346 1.501466-31.530792 9.008798-9.008798 24.02346-7.507331 31.530792 1.501466l67.565982 72.070381c7.507331 9.008798 7.507331 22.521994 0 31.530792l-67.565982 69.067449c-4.504399 3.002933-10.510264 6.005865-16.516129 6.005865z" fill="#FFDA00" p-id="10117"></path><path d="M451.941349 872.351906c-6.005865 0-12.01173-3.002933-16.516129-7.507331L369.360704 795.777126c-9.008798-9.008798-9.008798-22.521994 0-31.530792l67.565982-72.070381c9.008798-9.008798 22.521994-9.008798 31.530792-1.501466 9.008798 9.008798 9.008798 22.521994 1.501466 31.530792L415.906158 780.762463l52.55132 54.052786c9.008798 9.008798 9.008798 22.521994 0 31.530792-4.504399 4.504399-10.510264 6.005865-16.516129 6.005865zM521.008798 633.618768c-12.01173 0-22.521994-10.510264-22.521994-22.521994V441.431085c0-12.01173 10.510264-22.521994 22.521994-22.521994s22.521994 10.510264 22.521994 22.521994v169.665689c0 13.513196-10.510264 22.521994-22.521994 22.521994z" fill="#333333" p-id="10118"></path></svg>