<?xml version="1.0" standalone="no"?><!DOCTYPE svg PUBLIC "-//W3C//DTD SVG 1.1//EN" "http://www.w3.org/Graphics/SVG/1.1/DTD/svg11.dtd"><svg class="icon" width="200px" height="200.00px" viewBox="0 0 1024 1024" version="1.1" xmlns="http://www.w3.org/2000/svg"><path d="M904.5 956.9H123.2c-14.8 0-29-5.9-39.5-16.3-10.5-10.5-16.3-24.7-16.3-39.5V268.5c0-14.8 5.9-29 16.3-39.5 10.5-10.5 24.7-16.4 39.5-16.4h595.3c10.3 0 18.6 8.3 18.6 18.6s-8.3 18.6-18.6 18.6H123.2c-10.3 0-18.6 8.3-18.6 18.6V901c0 10.3 8.3 18.6 18.6 18.6h781.4c10.3 0 18.6-8.3 18.6-18.6V268.5c0-10.3-8.3-18.6-18.6-18.6h-37.2c-10.3 0-18.6-8.3-18.6-18.6s8.3-18.6 18.6-18.6h37.2c14.8 0 29 5.9 39.5 16.4 10.5 10.5 16.3 24.7 16.3 39.5v632.6c0 30.7-25 55.7-55.9 55.7z m0 0" fill="#76569A" /><path d="M439.4 882.5c-151.7-0.1-279.1-114.2-295.7-265-16.6-150.8 82.7-290 230.8-323.1 148-33.2 297.3 50.3 346.6 193.7 3.1 6.5 2.2 14.1-2.3 19.7s-11.8 8.1-18.8 6.4c-7-1.7-12.4-7.2-13.9-14.2-34.3-99.8-125.4-169-230.7-175.3s-204 51.5-250 146.5-30.1 208.3 40.1 287c70.3 78.7 181.1 107.2 280.6 72.3 9.8-3.5 20.5 1.6 24 11.4s-1.6 20.5-11.3 24c-32 10.8-65.6 16.5-99.4 16.6z m0 0" fill="#76569A" /><path d="M902.2 287.1h-74.4c-14.8 0-29-5.9-39.5-16.3-10.5-10.5-16.3-24.7-16.3-39.5v-74.4c0-51.4 41.6-93 93-93s93 41.7 93 93v74.4c0 30.8-25 55.8-55.8 55.8zM376.6 715C315 715 265 665.1 265 603.4s50-111.6 111.6-111.6c61.6 0 111.6 50 111.6 111.6 0 29.6-11.8 58-32.7 78.9-20.9 21-49.2 32.7-78.9 32.7z" fill="#FFF433" /><path d="M830.1 324.3h-74.4c-14.8 0-29-5.9-39.5-16.3-10.5-10.5-16.3-24.7-16.3-39.5v-74.4c0-51.4 41.6-93 93-93s93 41.7 93 93v74.4c0 30.8-24.9 55.8-55.8 55.8z m-37.2-186c-14.8 0-29 5.9-39.5 16.3-10.5 10.5-16.3 24.7-16.3 39.5v74.4c0 10.3 8.3 18.6 18.6 18.6h74.4c10.3 0 18.6-8.3 18.6-18.6v-74.4c0-30.8-25-55.8-55.8-55.8zM629.2 803.6c-18.7-0.2-36.6-7.3-50.2-20.1-15-15.4-22.6-36.5-20.9-57.8 1.7-21.4 12.6-41 29.8-53.8l24.2-24.6c10.4-10.5 24.6-16.5 39.4-16.5 14.8 0 29 5.9 39.4 16.5l21.9 22c21.6 21.9 21.6 57 0 78.9l-23.1 23.1c-11.5 17.9-30.3 29.8-51.3 32.4h-9.2z m9.3-131l-26.4 26.8c-9.5 6.7-15.7 17.1-17.1 28.6-0.9 10.7 2.9 21.3 10.4 29 7.7 7.2 18.2 10.5 28.6 8.9 10.7-1.3 20.1-7.5 25.7-16.7 0.7-1.4 1.5-2.6 2.6-3.7l24.6-24.6c3.6-3.4 5.6-8.1 5.6-13s-2-9.6-5.6-13l-22-22.3c-7.3-7.1-19-7.1-26.4 0z m-199.1-59.9c-15.4 0-27.9-12.5-27.9-27.9s12.5-27.9 27.9-27.9c15.4 0 27.9 12.5 27.9 27.9-0.2 15.3-12.5 27.7-27.9 27.9z m0-37.2c-5.1 0-9.3 4.2-9.3 9.3 0 10.4 18.6 10.4 18.6 0 0-2.5-1-4.8-2.7-6.6-1.7-1.7-4.1-2.7-6.6-2.7z m0 0" fill="#76569A" /><path d="M439.4 696.4c-61.7 0-111.6-50-111.6-111.6s50-111.6 111.6-111.6c61.6 0 111.6 50 111.6 111.6 0 29.6-11.8 58-32.7 78.9-20.9 21-49.3 32.7-78.9 32.7z m0-186c-41.1 0-74.4 33.3-74.4 74.4 0 41.1 33.3 74.4 74.4 74.4s74.4-33.3 74.4-74.4c0-19.7-7.8-38.7-21.8-52.6-13.9-14-32.8-21.8-52.6-21.8z m250.4 178.9c-4.3-0.1-8.5-1.5-11.9-4.1-7.8-6.7-8.8-18.5-2.2-26.4l98.6-117.9V305.7c0-10.3 8.3-18.6 18.6-18.6s18.6 8.3 18.6 18.6v241.9c0.1 4.4-1.5 8.6-4.5 11.9L704.4 682.6c-3.6 4.3-9 6.8-14.6 6.7z m0 0" fill="#76569A" /></svg>